<svg xmlns="http://www.w3.org/2000/svg" viewBox="0 0 128 128"><defs><style>.cls-1{fill:#18181b;}.cls-2{fill:#10b981;}.cls-3{fill:#f4f4f5;}</style></defs><g id="Layer_2" data-name="Layer 2"><g id="Layer_1-2" data-name="Layer 1"><rect class="cls-1" width="128" height="128" rx="12"/><path class="cls-2" d="M54.16,60.44l17.33-.12A38.78,38.78,0,0,0,110,21.54h0A3.53,3.53,0,0,0,106.46,18l-17.37.13A38.77,38.77,0,0,0,50.6,56.9h0A3.54,3.54,0,0,0,54.16,60.44Z"/><path class="cls-3" d="M44.21,19.51a3.41,3.41,0,0,0-1.35-.58,20.6,20.6,0,0,0-2.68-.52,27.17,27.17,0,0,0-3.7-.22,16.54,16.54,0,0,0-5,.71,9.6,9.6,0,0,0-3.76,2.2,9.83,9.83,0,0,0-2.35,3.62,13.75,13.75,0,0,0-.83,5V32H18v5.21a.61.61,0,0,0,.08.3.77.77,0,0,0,.22.22.61.61,0,0,0,.3.08h5.92V54.49H18v5.15a.57.57,0,0,0,.08.33.82.82,0,0,0,.22.19.52.52,0,0,0,.3.08H41.91V55.09a.5.5,0,0,0-.09-.33.86.86,0,0,0-.19-.19.5.5,0,0,0-.33-.08H31.16V37.82H42.4V32.61a.57.57,0,0,0-.08-.33.9.9,0,0,0-.2-.19A.49.49,0,0,0,41.8,32H31.16V29.65a14.66,14.66,0,0,1,.11-2,6.31,6.31,0,0,1,.38-1.54A3.15,3.15,0,0,1,32.31,25a4.11,4.11,0,0,1,1.56-.79A9.41,9.41,0,0,1,36.31,24c.92,0,1.78,0,2.58.11s1.58.19,2.33.33a20.86,20.86,0,0,1,2.17.55h1V20a1.13,1.13,0,0,0,0-.25A.23.23,0,0,0,44.21,19.51Z"/><path class="cls-3" d="M43.6,102.65H35.87V70.58a.5.5,0,0,0-.08-.33.86.86,0,0,0-.19-.19.5.5,0,0,0-.33-.08H28.75a12.23,12.23,0,0,1-1.18,1c-.53.38-1.09.8-1.67,1.26l-1.65,1.28L22,75.24c-.77.58-1.54,1.19-2.31,1.81v6.74a.73.73,0,0,0,.06.3.37.37,0,0,0,.16.2.63.63,0,0,0,.22,0,1.48,1.48,0,0,0,.66-.25,8,8,0,0,0,1.18-.85l1.78-1.42c.77-.66,1.44-1.26,2-1.81a12.41,12.41,0,0,0,1.59-1.89c.32-.46.65-1,1-1.57h1v26.1H18.77v5.65a.59.59,0,0,0,.05.22l.11.22a1.6,1.6,0,0,1,.19.11.44.44,0,0,0,.25.05H44.21v-5.64a.58.58,0,0,0-.61-.61Z"/><path class="cls-3" d="M70.36,71.24a12.28,12.28,0,0,0-6.74-1.81,12.64,12.64,0,0,0-6.75,1.78,12.32,12.32,0,0,0-4.58,5.15,18.28,18.28,0,0,0-1.67,8.15V94.92a19.7,19.7,0,0,0,.93,6.28,14,14,0,0,0,2.64,4.74,11.27,11.27,0,0,0,4.08,3,13,13,0,0,0,5.24,1,12.63,12.63,0,0,0,6.74-1.78A12.28,12.28,0,0,0,74.83,103a18.29,18.29,0,0,0,1.67-8.12V84.51a18.4,18.4,0,0,0-1.64-8.06A12.34,12.34,0,0,0,70.36,71.24ZM58,79.32a5.73,5.73,0,0,1,2.17-2.82,6.26,6.26,0,0,1,3.37-.88,7.49,7.49,0,0,1,2.52.39A4.5,4.5,0,0,1,68,77.21a5.56,5.56,0,0,1,1,1.65,11.54,11.54,0,0,1,.57,1.94c-.94,1-1.86,1.89-2.73,2.8q-2,2.06-4.12,4.19c-1,1-1.72,1.8-2.33,2.53a15.45,15.45,0,0,0-1.48,2.11c-.18.33-.37.69-.54,1.07H57.26v-9A14.52,14.52,0,0,1,58,79.32Zm11,20.7a5.76,5.76,0,0,1-2.25,2.88,6.48,6.48,0,0,1-3.48.9,6.08,6.08,0,0,1-2.85-.63,5.15,5.15,0,0,1-2-1.83,6.55,6.55,0,0,1-.69-1.54,9.28,9.28,0,0,1-.31-1.35L59,97c1-1,2-2,2.93-3l3-3.1a24.86,24.86,0,0,0,1.86-2,15.36,15.36,0,0,0,1.37-2,14.08,14.08,0,0,0,.64-1.29h1.12v9.32A13.77,13.77,0,0,1,69.07,100Z"/><path class="cls-3" d="M109.84,102.82a.6.6,0,0,0-.44-.17h-7.73V70.58a.5.5,0,0,0-.09-.33.86.86,0,0,0-.19-.19.5.5,0,0,0-.33-.08H94.54a12.23,12.23,0,0,1-1.18,1c-.53.38-1.09.8-1.67,1.26L90,73.48l-2.3,1.76c-.77.58-1.53,1.19-2.3,1.81v6.74a.94.94,0,0,0,0,.3.34.34,0,0,0,.17.2.54.54,0,0,0,.22,0,1.49,1.49,0,0,0,.65-.25,7.51,7.51,0,0,0,1.18-.85l1.78-1.42c.77-.66,1.44-1.26,2-1.81a13.67,13.67,0,0,0,1.59-1.89c.31-.46.65-1,1-1.57h1v26.1H84.56v5.65a.59.59,0,0,0,0,.22,2.26,2.26,0,0,1,.11.22l.2.11a.39.39,0,0,0,.24.05H110v-5.64A.58.58,0,0,0,109.84,102.82Z"/></g></g></svg>